<svg width="1024" height="600" viewBox="0 0 1024 600" fill="none" xmlns="http://www.w3.org/2000/svg">
<rect width="1024" height="600" fill="white"/>
<path d="M420.6 172.573C130.467 67.1009 130.467 535.868 420.6 427.465" stroke="#FC6309" stroke-width="3"/>
<path d="M312.511 222.38V302.949M312.511 383.519V302.949M312.511 302.949H511.622" stroke="#073C0C" stroke-width="3"/>
<path d="M777.531 303.586C777.32 305.391 776.652 306.785 775.527 307.77C774.41 308.746 772.922 309.234 771.062 309.234C769.047 309.234 767.43 308.512 766.211 307.066C765 305.621 764.395 303.688 764.395 301.266V299.625C764.395 298.039 764.676 296.645 765.238 295.441C765.809 294.238 766.613 293.316 767.652 292.676C768.691 292.027 769.895 291.703 771.262 291.703C773.074 291.703 774.527 292.211 775.621 293.227C776.715 294.234 777.352 295.633 777.531 297.422H775.27C775.074 296.062 774.648 295.078 773.992 294.469C773.344 293.859 772.434 293.555 771.262 293.555C769.824 293.555 768.695 294.086 767.875 295.148C767.062 296.211 766.656 297.723 766.656 299.684V301.336C766.656 303.188 767.043 304.66 767.816 305.754C768.59 306.848 769.672 307.395 771.062 307.395C772.312 307.395 773.27 307.113 773.934 306.551C774.605 305.98 775.051 304.992 775.27 303.586H777.531ZM783.027 309H780.777V291.938H783.027V309ZM790.059 291.938L795.637 305.859L801.215 291.938H804.133V309H801.883V302.355L802.094 295.184L796.492 309H794.77L789.18 295.219L789.402 302.355V309H787.152V291.938H790.059ZM819.543 293.789H814.059V309H811.82V293.789H806.348V291.938H819.543V293.789Z" fill="#FC6309"/>
<path d="M752.912 516.529L754.482 511.66H755.59L753.316 518H752.49L750.193 511.66H751.301L752.912 516.529ZM759.182 518.117C758.322 518.117 757.623 517.836 757.084 517.273C756.545 516.707 756.275 515.951 756.275 515.006V514.807C756.275 514.178 756.395 513.617 756.633 513.125C756.875 512.629 757.211 512.242 757.641 511.965C758.074 511.684 758.543 511.543 759.047 511.543C759.871 511.543 760.512 511.814 760.969 512.357C761.426 512.9 761.654 513.678 761.654 514.689V515.141H757.359C757.375 515.766 757.557 516.271 757.904 516.658C758.256 517.041 758.701 517.232 759.24 517.232C759.623 517.232 759.947 517.154 760.213 516.998C760.479 516.842 760.711 516.635 760.91 516.377L761.572 516.893C761.041 517.709 760.244 518.117 759.182 518.117ZM759.047 512.434C758.609 512.434 758.242 512.594 757.945 512.914C757.648 513.23 757.465 513.676 757.395 514.25H760.57V514.168C760.539 513.617 760.391 513.191 760.125 512.891C759.859 512.586 759.5 512.434 759.047 512.434ZM765.979 512.633C765.814 512.605 765.637 512.592 765.445 512.592C764.734 512.592 764.252 512.895 763.998 513.5V518H762.914V511.66H763.969L763.986 512.393C764.342 511.826 764.846 511.543 765.498 511.543C765.709 511.543 765.869 511.57 765.979 511.625V512.633ZM770.672 516.318C770.672 516.025 770.561 515.799 770.338 515.639C770.119 515.475 769.734 515.334 769.184 515.217C768.637 515.1 768.201 514.959 767.877 514.795C767.557 514.631 767.318 514.436 767.162 514.209C767.01 513.982 766.934 513.713 766.934 513.4C766.934 512.881 767.152 512.441 767.59 512.082C768.031 511.723 768.594 511.543 769.277 511.543C769.996 511.543 770.578 511.729 771.023 512.1C771.473 512.471 771.697 512.945 771.697 513.523H770.607C770.607 513.227 770.48 512.971 770.227 512.756C769.977 512.541 769.66 512.434 769.277 512.434C768.883 512.434 768.574 512.52 768.352 512.691C768.129 512.863 768.018 513.088 768.018 513.365C768.018 513.627 768.121 513.824 768.328 513.957C768.535 514.09 768.908 514.217 769.447 514.338C769.99 514.459 770.43 514.604 770.766 514.771C771.102 514.939 771.35 515.143 771.51 515.381C771.674 515.615 771.756 515.902 771.756 516.242C771.756 516.809 771.529 517.264 771.076 517.607C770.623 517.947 770.035 518.117 769.312 518.117C768.805 518.117 768.355 518.027 767.965 517.848C767.574 517.668 767.268 517.418 767.045 517.098C766.826 516.773 766.717 516.424 766.717 516.049H767.801C767.82 516.412 767.965 516.701 768.234 516.916C768.508 517.127 768.867 517.232 769.312 517.232C769.723 517.232 770.051 517.15 770.297 516.986C770.547 516.818 770.672 516.596 770.672 516.318ZM774.346 518H773.262V511.66H774.346V518ZM773.174 509.979C773.174 509.803 773.227 509.654 773.332 509.533C773.441 509.412 773.602 509.352 773.812 509.352C774.023 509.352 774.184 509.412 774.293 509.533C774.402 509.654 774.457 509.803 774.457 509.979C774.457 510.154 774.402 510.301 774.293 510.418C774.184 510.535 774.023 510.594 773.812 510.594C773.602 510.594 773.441 510.535 773.332 510.418C773.227 510.301 773.174 510.154 773.174 509.979ZM775.799 514.771C775.799 514.15 775.92 513.592 776.162 513.096C776.408 512.6 776.748 512.217 777.182 511.947C777.619 511.678 778.117 511.543 778.676 511.543C779.539 511.543 780.236 511.842 780.768 512.439C781.303 513.037 781.57 513.832 781.57 514.824V514.9C781.57 515.518 781.451 516.072 781.213 516.564C780.979 517.053 780.641 517.434 780.199 517.707C779.762 517.98 779.258 518.117 778.688 518.117C777.828 518.117 777.131 517.818 776.596 517.221C776.064 516.623 775.799 515.832 775.799 514.848V514.771ZM776.889 514.9C776.889 515.604 777.051 516.168 777.375 516.594C777.703 517.02 778.141 517.232 778.688 517.232C779.238 517.232 779.676 517.018 780 516.588C780.324 516.154 780.486 515.549 780.486 514.771C780.486 514.076 780.32 513.514 779.988 513.084C779.66 512.65 779.223 512.434 778.676 512.434C778.141 512.434 777.709 512.646 777.381 513.072C777.053 513.498 776.889 514.107 776.889 514.9ZM783.955 511.66L783.99 512.457C784.475 511.848 785.107 511.543 785.889 511.543C787.229 511.543 787.904 512.299 787.916 513.811V518H786.832V513.805C786.828 513.348 786.723 513.01 786.516 512.791C786.312 512.572 785.994 512.463 785.561 512.463C785.209 512.463 784.9 512.557 784.635 512.744C784.369 512.932 784.162 513.178 784.014 513.482V518H782.93V511.66H783.955ZM795.979 518H794.889V510.775L792.703 511.578V510.594L795.809 509.428H795.979V518ZM799.289 517.432C799.289 517.244 799.344 517.088 799.453 516.963C799.566 516.838 799.734 516.775 799.957 516.775C800.18 516.775 800.348 516.838 800.461 516.963C800.578 517.088 800.637 517.244 800.637 517.432C800.637 517.611 800.578 517.762 800.461 517.883C800.348 518.004 800.18 518.064 799.957 518.064C799.734 518.064 799.566 518.004 799.453 517.883C799.344 517.762 799.289 517.611 799.289 517.432ZM807.668 514.361C807.668 515.631 807.451 516.574 807.018 517.191C806.584 517.809 805.906 518.117 804.984 518.117C804.074 518.117 803.4 517.816 802.963 517.215C802.525 516.609 802.299 515.707 802.283 514.508V513.061C802.283 511.807 802.5 510.875 802.934 510.266C803.367 509.656 804.047 509.352 804.973 509.352C805.891 509.352 806.566 509.646 807 510.236C807.434 510.822 807.656 511.729 807.668 512.955V514.361ZM806.584 512.879C806.584 511.961 806.455 511.293 806.197 510.875C805.939 510.453 805.531 510.242 804.973 510.242C804.418 510.242 804.014 510.451 803.76 510.869C803.506 511.287 803.375 511.93 803.367 512.797V514.531C803.367 515.453 803.5 516.135 803.766 516.576C804.035 517.014 804.441 517.232 804.984 517.232C805.52 517.232 805.916 517.025 806.174 516.611C806.436 516.197 806.572 515.545 806.584 514.654V512.879ZM809.191 517.432C809.191 517.244 809.246 517.088 809.355 516.963C809.469 516.838 809.637 516.775 809.859 516.775C810.082 516.775 810.25 516.838 810.363 516.963C810.48 517.088 810.539 517.244 810.539 517.432C810.539 517.611 810.48 517.762 810.363 517.883C810.25 518.004 810.082 518.064 809.859 518.064C809.637 518.064 809.469 518.004 809.355 517.883C809.246 517.762 809.191 517.611 809.191 517.432ZM817.57 514.361C817.57 515.631 817.354 516.574 816.92 517.191C816.486 517.809 815.809 518.117 814.887 518.117C813.977 518.117 813.303 517.816 812.865 517.215C812.428 516.609 812.201 515.707 812.186 514.508V513.061C812.186 511.807 812.402 510.875 812.836 510.266C813.27 509.656 813.949 509.352 814.875 509.352C815.793 509.352 816.469 509.646 816.902 510.236C817.336 510.822 817.559 511.729 817.57 512.955V514.361ZM816.486 512.879C816.486 511.961 816.357 511.293 816.1 510.875C815.842 510.453 815.434 510.242 814.875 510.242C814.32 510.242 813.916 510.451 813.662 510.869C813.408 511.287 813.277 511.93 813.27 512.797V514.531C813.27 515.453 813.402 516.135 813.668 516.576C813.938 517.014 814.344 517.232 814.887 517.232C815.422 517.232 815.818 517.025 816.076 516.611C816.338 516.197 816.475 515.545 816.486 514.654V512.879Z" fill="#073C0C"/>
</svg>
